<mxfile host="app.diagrams.net" modified="2023-07-30T12:37:54.540Z" agent="Mozilla/5.0 (Windows NT 10.0; Win64; x64; rv:109.0) Gecko/20100101 Firefox/115.0" etag="K1LK55B9XC8ajaeKkuao" version="21.6.6" type="github">
  <diagram name="Page-1" id="1YaccvU8N2k0Ol2J2nWE">
    <mxGraphModel dx="1430" dy="788" grid="1" gridSize="10" guides="1" tooltips="1" connect="1" arrows="1" fold="1" page="1" pageScale="1" pageWidth="1169" pageHeight="827" math="0" shadow="0">
      <root>
        <mxCell id="0" />
        <mxCell id="1" parent="0" />
        <mxCell id="axNNHHY9TAka3IsmRY76-31" value="Server" style="swimlane;whiteSpace=wrap;html=1;swimlaneFillColor=#EDFBFF;" parent="1" vertex="1">
          <mxGeometry x="20" y="190" width="1020" height="510" as="geometry" />
        </mxCell>
        <mxCell id="axNNHHY9TAka3IsmRY76-47" value="" style="shape=manualInput;whiteSpace=wrap;html=1;size=173;strokeColor=none;fillColor=#FFF2E3;" parent="axNNHHY9TAka3IsmRY76-31" vertex="1">
          <mxGeometry y="70" width="740" height="440" as="geometry" />
        </mxCell>
        <mxCell id="axNNHHY9TAka3IsmRY76-50" value="" style="shape=card;whiteSpace=wrap;html=1;size=160;flipH=1;fillColor=#9BE868;strokeColor=none;" parent="axNNHHY9TAka3IsmRY76-31" vertex="1">
          <mxGeometry y="440" width="470" height="70" as="geometry" />
        </mxCell>
        <mxCell id="axNNHHY9TAka3IsmRY76-6" value="Certifier" style="rounded=0;whiteSpace=wrap;html=1;" parent="axNNHHY9TAka3IsmRY76-31" vertex="1">
          <mxGeometry x="220" y="40" width="120" height="40" as="geometry" />
        </mxCell>
        <mxCell id="axNNHHY9TAka3IsmRY76-7" value="AccountServer" style="rounded=0;whiteSpace=wrap;html=1;" parent="axNNHHY9TAka3IsmRY76-31" vertex="1">
          <mxGeometry x="20" y="150" width="120" height="40" as="geometry" />
        </mxCell>
        <mxCell id="axNNHHY9TAka3IsmRY76-14" value="" style="endArrow=classic;html=1;rounded=0;exitX=0;exitY=1;exitDx=0;exitDy=0;entryX=1;entryY=0;entryDx=0;entryDy=0;" parent="axNNHHY9TAka3IsmRY76-31" source="axNNHHY9TAka3IsmRY76-6" target="axNNHHY9TAka3IsmRY76-7" edge="1">
          <mxGeometry width="50" height="50" relative="1" as="geometry">
            <mxPoint x="360" y="220" as="sourcePoint" />
            <mxPoint x="410" y="170" as="targetPoint" />
          </mxGeometry>
        </mxCell>
        <mxCell id="axNNHHY9TAka3IsmRY76-9" value="SQL Server" style="rhombus;whiteSpace=wrap;html=1;strokeColor=#999999;fontColor=#999999;" parent="axNNHHY9TAka3IsmRY76-31" vertex="1">
          <mxGeometry x="220" y="140" width="120" height="60" as="geometry" />
        </mxCell>
        <mxCell id="axNNHHY9TAka3IsmRY76-28" value="" style="endArrow=classic;html=1;rounded=0;exitX=1;exitY=0.5;exitDx=0;exitDy=0;dashed=1;dashPattern=1 2;strokeColor=#999999;" parent="axNNHHY9TAka3IsmRY76-31" source="axNNHHY9TAka3IsmRY76-7" target="axNNHHY9TAka3IsmRY76-9" edge="1">
          <mxGeometry width="50" height="50" relative="1" as="geometry">
            <mxPoint x="510" y="220" as="sourcePoint" />
            <mxPoint x="560" y="170" as="targetPoint" />
          </mxGeometry>
        </mxCell>
        <mxCell id="axNNHHY9TAka3IsmRY76-30" value="" style="endArrow=classic;html=1;rounded=0;exitX=0.5;exitY=1;exitDx=0;exitDy=0;entryX=0.5;entryY=0;entryDx=0;entryDy=0;dashed=1;dashPattern=1 2;strokeColor=#999999;" parent="axNNHHY9TAka3IsmRY76-31" source="axNNHHY9TAka3IsmRY76-6" target="axNNHHY9TAka3IsmRY76-9" edge="1">
          <mxGeometry width="50" height="50" relative="1" as="geometry">
            <mxPoint x="510" y="220" as="sourcePoint" />
            <mxPoint x="560" y="170" as="targetPoint" />
          </mxGeometry>
        </mxCell>
        <mxCell id="axNNHHY9TAka3IsmRY76-8" value="DatabaseServer" style="rounded=0;whiteSpace=wrap;html=1;" parent="axNNHHY9TAka3IsmRY76-31" vertex="1">
          <mxGeometry x="220" y="260" width="120" height="40" as="geometry" />
        </mxCell>
        <mxCell id="axNNHHY9TAka3IsmRY76-16" value="" style="endArrow=classic;html=1;rounded=0;exitX=0;exitY=0;exitDx=0;exitDy=0;entryX=1;entryY=1;entryDx=0;entryDy=0;" parent="axNNHHY9TAka3IsmRY76-31" source="axNNHHY9TAka3IsmRY76-8" target="axNNHHY9TAka3IsmRY76-7" edge="1">
          <mxGeometry width="50" height="50" relative="1" as="geometry">
            <mxPoint x="360" y="220" as="sourcePoint" />
            <mxPoint x="390" y="190" as="targetPoint" />
          </mxGeometry>
        </mxCell>
        <mxCell id="axNNHHY9TAka3IsmRY76-27" value="" style="endArrow=classic;html=1;rounded=0;exitX=0.5;exitY=0;exitDx=0;exitDy=0;entryX=0.5;entryY=1;entryDx=0;entryDy=0;dashed=1;dashPattern=1 2;strokeColor=#999999;" parent="axNNHHY9TAka3IsmRY76-31" source="axNNHHY9TAka3IsmRY76-8" target="axNNHHY9TAka3IsmRY76-9" edge="1">
          <mxGeometry width="50" height="50" relative="1" as="geometry">
            <mxPoint x="510" y="220" as="sourcePoint" />
            <mxPoint x="560" y="170" as="targetPoint" />
          </mxGeometry>
        </mxCell>
        <mxCell id="axNNHHY9TAka3IsmRY76-5" value="LoginServer" style="rounded=0;whiteSpace=wrap;html=1;" parent="axNNHHY9TAka3IsmRY76-31" vertex="1">
          <mxGeometry x="530" y="260" width="120" height="40" as="geometry" />
        </mxCell>
        <mxCell id="axNNHHY9TAka3IsmRY76-18" value="" style="endArrow=classic;html=1;rounded=0;exitX=0;exitY=0.5;exitDx=0;exitDy=0;entryX=1;entryY=0.5;entryDx=0;entryDy=0;" parent="axNNHHY9TAka3IsmRY76-31" source="axNNHHY9TAka3IsmRY76-5" target="axNNHHY9TAka3IsmRY76-8" edge="1">
          <mxGeometry width="50" height="50" relative="1" as="geometry">
            <mxPoint x="360" y="210" as="sourcePoint" />
            <mxPoint x="410" y="160" as="targetPoint" />
          </mxGeometry>
        </mxCell>
        <mxCell id="axNNHHY9TAka3IsmRY76-3" value="CoreServer" style="rounded=0;whiteSpace=wrap;html=1;" parent="axNNHHY9TAka3IsmRY76-31" vertex="1">
          <mxGeometry x="380" y="360" width="120" height="40" as="geometry" />
        </mxCell>
        <mxCell id="axNNHHY9TAka3IsmRY76-24" value="" style="endArrow=classic;html=1;rounded=0;exitX=0;exitY=0;exitDx=0;exitDy=0;entryX=1;entryY=1;entryDx=0;entryDy=0;" parent="axNNHHY9TAka3IsmRY76-31" source="axNNHHY9TAka3IsmRY76-3" target="axNNHHY9TAka3IsmRY76-8" edge="1">
          <mxGeometry width="50" height="50" relative="1" as="geometry">
            <mxPoint x="360" y="210" as="sourcePoint" />
            <mxPoint x="410" y="160" as="targetPoint" />
          </mxGeometry>
        </mxCell>
        <mxCell id="axNNHHY9TAka3IsmRY76-25" value="" style="endArrow=classic;html=1;rounded=0;exitX=0;exitY=1;exitDx=0;exitDy=0;entryX=1;entryY=0;entryDx=0;entryDy=0;" parent="axNNHHY9TAka3IsmRY76-31" source="axNNHHY9TAka3IsmRY76-5" target="axNNHHY9TAka3IsmRY76-3" edge="1">
          <mxGeometry width="50" height="50" relative="1" as="geometry">
            <mxPoint x="510" y="210" as="sourcePoint" />
            <mxPoint x="560" y="160" as="targetPoint" />
          </mxGeometry>
        </mxCell>
        <mxCell id="axNNHHY9TAka3IsmRY76-74" value="&lt;div style=&quot;font-size: 9px;&quot;&gt;Port: 12000&lt;/div&gt;" style="edgeLabel;html=1;align=center;verticalAlign=middle;resizable=0;points=[];labelBackgroundColor=none;fontSize=9;" parent="axNNHHY9TAka3IsmRY76-31" vertex="1" connectable="0">
          <mxGeometry x="130.00476190476195" y="130" as="geometry" />
        </mxCell>
        <mxCell id="axNNHHY9TAka3IsmRY76-75" value="&lt;div style=&quot;font-size: 9px;&quot;&gt;Port: 12001&lt;/div&gt;" style="edgeLabel;html=1;align=center;verticalAlign=middle;resizable=0;points=[];labelBackgroundColor=none;fontSize=9;" parent="axNNHHY9TAka3IsmRY76-31" vertex="1" connectable="0">
          <mxGeometry x="122.00476190476195" y="203" as="geometry" />
        </mxCell>
        <mxCell id="axNNHHY9TAka3IsmRY76-76" value="&lt;div style=&quot;font-size: 9px;&quot;&gt;Port: 7000&lt;/div&gt;&lt;div style=&quot;font-size: 9px;&quot;&gt;Onlyone&lt;br style=&quot;font-size: 9px;&quot;&gt;&lt;/div&gt;" style="edgeLabel;html=1;align=center;verticalAlign=middle;resizable=0;points=[];labelBackgroundColor=none;fontSize=9;" parent="axNNHHY9TAka3IsmRY76-31" vertex="1" connectable="0">
          <mxGeometry x="370.00476190476195" y="260" as="geometry" />
        </mxCell>
        <mxCell id="axNNHHY9TAka3IsmRY76-77" value="&lt;div style=&quot;font-size: 9px;&quot;&gt;Port: 28000&lt;/div&gt;" style="edgeLabel;html=1;align=center;verticalAlign=middle;resizable=0;points=[];labelBackgroundColor=none;fontSize=9;" parent="axNNHHY9TAka3IsmRY76-31" vertex="1" connectable="0">
          <mxGeometry x="690.004761904762" y="270" as="geometry" />
        </mxCell>
        <mxCell id="axNNHHY9TAka3IsmRY76-78" value="&lt;div style=&quot;font-size: 9px;&quot;&gt;Port: 28000&lt;/div&gt;" style="edgeLabel;html=1;align=center;verticalAlign=middle;resizable=0;points=[];labelBackgroundColor=none;fontSize=9;" parent="axNNHHY9TAka3IsmRY76-31" vertex="1" connectable="0">
          <mxGeometry x="700.004761904762" y="310" as="geometry" />
        </mxCell>
        <mxCell id="axNNHHY9TAka3IsmRY76-79" value="&lt;div style=&quot;font-size: 9px;&quot;&gt;Port: 34002&lt;/div&gt;&lt;div style=&quot;font-size: 9px;&quot;&gt;Onlyone&lt;br style=&quot;font-size: 9px;&quot;&gt;&lt;/div&gt;" style="edgeLabel;html=1;align=center;verticalAlign=middle;resizable=0;points=[];labelBackgroundColor=none;fontSize=9;" parent="axNNHHY9TAka3IsmRY76-31" vertex="1" connectable="0">
          <mxGeometry x="540.004761904762" y="350" as="geometry" />
        </mxCell>
        <mxCell id="axNNHHY9TAka3IsmRY76-80" value="&lt;div style=&quot;font-size: 9px;&quot;&gt;Port: 34001&lt;/div&gt;&lt;div style=&quot;font-size: 9px;&quot;&gt;Onlyone&lt;br style=&quot;font-size: 9px;&quot;&gt;&lt;/div&gt;" style="edgeLabel;html=1;align=center;verticalAlign=middle;resizable=0;points=[];labelBackgroundColor=none;fontSize=9;" parent="axNNHHY9TAka3IsmRY76-31" vertex="1" connectable="0">
          <mxGeometry x="540.004761904762" y="410" as="geometry" />
        </mxCell>
        <mxCell id="axNNHHY9TAka3IsmRY76-81" value="&lt;div style=&quot;font-size: 9px;&quot;&gt;Port: 7200&lt;/div&gt;&lt;div style=&quot;font-size: 9px;&quot;&gt;Onlyone&lt;br style=&quot;font-size: 9px;&quot;&gt;&lt;/div&gt;" style="edgeLabel;html=1;align=center;verticalAlign=middle;resizable=0;points=[];labelBackgroundColor=none;fontSize=9;" parent="axNNHHY9TAka3IsmRY76-31" vertex="1" connectable="0">
          <mxGeometry x="380.00476190476195" y="310" as="geometry" />
        </mxCell>
        <mxCell id="axNNHHY9TAka3IsmRY76-82" value="&lt;div style=&quot;font-size: 9px;&quot;&gt;Port: 24000&lt;/div&gt;" style="edgeLabel;html=1;align=center;verticalAlign=middle;resizable=0;points=[];labelBackgroundColor=none;fontSize=9;" parent="axNNHHY9TAka3IsmRY76-31" vertex="1" connectable="0">
          <mxGeometry x="250.00476190476195" y="320" as="geometry" />
        </mxCell>
        <mxCell id="axNNHHY9TAka3IsmRY76-83" value="&lt;div style=&quot;font-size: 9px;&quot;&gt;Port: 39000 + Key&lt;br style=&quot;font-size: 9px;&quot;&gt;&lt;/div&gt;" style="edgeLabel;html=1;align=center;verticalAlign=middle;resizable=0;points=[];labelBackgroundColor=none;fontSize=9;" parent="axNNHHY9TAka3IsmRY76-31" vertex="1" connectable="0">
          <mxGeometry x="390.00476190476195" y="490" as="geometry" />
        </mxCell>
        <mxCell id="axNNHHY9TAka3IsmRY76-84" value="&lt;div style=&quot;font-size: 9px;&quot;&gt;Connects to all&lt;/div&gt;" style="edgeLabel;html=1;align=center;verticalAlign=middle;resizable=0;points=[];labelBackgroundColor=none;fontSize=9;" parent="axNNHHY9TAka3IsmRY76-31" vertex="1" connectable="0">
          <mxGeometry x="500.00476190476195" y="490" as="geometry" />
        </mxCell>
        <mxCell id="axNNHHY9TAka3IsmRY76-86" value="&lt;div style=&quot;font-size: 9px;&quot;&gt;Port: 5400&lt;/div&gt;" style="edgeLabel;html=1;align=center;verticalAlign=middle;resizable=0;points=[];labelBackgroundColor=none;fontSize=9;" parent="axNNHHY9TAka3IsmRY76-31" vertex="1" connectable="0">
          <mxGeometry x="690.004761904762" y="490" as="geometry" />
        </mxCell>
        <mxCell id="axNNHHY9TAka3IsmRY76-88" value="&lt;div style=&quot;font-size: 9px;&quot;&gt;Port: 34000&lt;/div&gt;" style="edgeLabel;html=1;align=center;verticalAlign=middle;resizable=0;points=[];labelBackgroundColor=none;fontSize=9;" parent="axNNHHY9TAka3IsmRY76-31" vertex="1" connectable="0">
          <mxGeometry x="390.00476190476195" y="420" as="geometry" />
        </mxCell>
        <mxCell id="axNNHHY9TAka3IsmRY76-91" value="&lt;div style=&quot;font-size: 9px;&quot;&gt;Port: 29000&lt;/div&gt;" style="edgeLabel;html=1;align=center;verticalAlign=middle;resizable=0;points=[];labelBackgroundColor=none;fontSize=9;" parent="axNNHHY9TAka3IsmRY76-31" vertex="1" connectable="0">
          <mxGeometry x="50.00476190476195" y="120" as="geometry" />
        </mxCell>
        <mxCell id="axNNHHY9TAka3IsmRY76-94" value="&lt;div style=&quot;font-size: 10px;&quot;&gt;Billing&lt;/div&gt;" style="rounded=1;whiteSpace=wrap;html=1;fontSize=10;strokeColor=#999999;fontColor=#999999;" parent="axNNHHY9TAka3IsmRY76-31" vertex="1">
          <mxGeometry x="22.5" y="47.5" width="55" height="25" as="geometry" />
        </mxCell>
        <mxCell id="axNNHHY9TAka3IsmRY76-90" value="" style="endArrow=classic;html=1;rounded=0;entryX=0.25;entryY=0;entryDx=0;entryDy=0;dashed=1;dashPattern=1 4;strokeColor=#999999;" parent="axNNHHY9TAka3IsmRY76-31" source="axNNHHY9TAka3IsmRY76-94" target="axNNHHY9TAka3IsmRY76-7" edge="1">
          <mxGeometry width="50" height="50" relative="1" as="geometry">
            <mxPoint x="50" y="80" as="sourcePoint" />
            <mxPoint x="-10" y="60" as="targetPoint" />
            <Array as="points" />
          </mxGeometry>
        </mxCell>
        <mxCell id="hUWJUKy3kiVAu-FcMmEy-3" value="" style="endArrow=none;html=1;rounded=0;exitX=1;exitY=1;exitDx=0;exitDy=0;exitPerimeter=0;entryX=1;entryY=1;entryDx=0;entryDy=0;" edge="1" parent="axNNHHY9TAka3IsmRY76-31" source="axNNHHY9TAka3IsmRY76-50" target="axNNHHY9TAka3IsmRY76-47">
          <mxGeometry width="50" height="50" relative="1" as="geometry">
            <mxPoint x="460" y="310" as="sourcePoint" />
            <mxPoint x="510" y="260" as="targetPoint" />
          </mxGeometry>
        </mxCell>
        <mxCell id="axNNHHY9TAka3IsmRY76-32" value="Client" style="swimlane;whiteSpace=wrap;html=1;swimlaneFillColor=#FFFBEB;startSize=23;" parent="axNNHHY9TAka3IsmRY76-31" vertex="1">
          <mxGeometry x="740" width="280" height="510" as="geometry">
            <mxRectangle x="760" y="190" width="110" height="30" as="alternateBounds" />
          </mxGeometry>
        </mxCell>
        <mxCell id="axNNHHY9TAka3IsmRY76-38" value="Neuz&lt;br&gt;&lt;font style=&quot;font-size: 10px;&quot;&gt;In game&lt;/font&gt;" style="rounded=0;whiteSpace=wrap;html=1;" parent="axNNHHY9TAka3IsmRY76-32" vertex="1">
          <mxGeometry x="80" y="460" width="120" height="40" as="geometry" />
        </mxCell>
        <mxCell id="axNNHHY9TAka3IsmRY76-34" value="Neuz&lt;br&gt;&lt;font style=&quot;font-size: 10px;&quot;&gt;Channel Selection&lt;/font&gt;" style="rounded=0;whiteSpace=wrap;html=1;" parent="axNNHHY9TAka3IsmRY76-32" vertex="1">
          <mxGeometry x="80" y="40" width="120" height="40" as="geometry" />
        </mxCell>
        <mxCell id="axNNHHY9TAka3IsmRY76-37" value="Neuz&lt;br&gt;&lt;font style=&quot;font-size: 10px;&quot;&gt;Character Selection&lt;/font&gt;" style="rounded=0;whiteSpace=wrap;html=1;" parent="axNNHHY9TAka3IsmRY76-32" vertex="1">
          <mxGeometry x="80" y="260" width="120" height="40" as="geometry" />
        </mxCell>
        <mxCell id="axNNHHY9TAka3IsmRY76-87" value="&lt;div style=&quot;font-size: 9px;&quot;&gt;Remains&lt;/div&gt;&lt;div style=&quot;font-size: 9px;&quot;&gt;connected to&lt;/div&gt;" style="text;html=1;strokeColor=none;fillColor=none;align=center;verticalAlign=middle;whiteSpace=wrap;rounded=0;fontSize=9;" parent="axNNHHY9TAka3IsmRY76-32" vertex="1">
          <mxGeometry x="40" y="410" width="80" height="30" as="geometry" />
        </mxCell>
        <mxCell id="axNNHHY9TAka3IsmRY76-35" style="edgeStyle=orthogonalEdgeStyle;rounded=0;orthogonalLoop=1;jettySize=auto;html=1;entryX=1;entryY=0.5;entryDx=0;entryDy=0;" parent="axNNHHY9TAka3IsmRY76-31" source="axNNHHY9TAka3IsmRY76-34" target="axNNHHY9TAka3IsmRY76-6" edge="1">
          <mxGeometry relative="1" as="geometry" />
        </mxCell>
        <mxCell id="axNNHHY9TAka3IsmRY76-72" value="&lt;div style=&quot;font-size: 9px;&quot;&gt;Port: 23000&lt;/div&gt;" style="edgeLabel;html=1;align=center;verticalAlign=middle;resizable=0;points=[];labelBackgroundColor=none;fontSize=9;" parent="axNNHHY9TAka3IsmRY76-35" vertex="1" connectable="0">
          <mxGeometry x="0.9083" y="2" relative="1" as="geometry">
            <mxPoint x="18" y="8" as="offset" />
          </mxGeometry>
        </mxCell>
        <mxCell id="axNNHHY9TAka3IsmRY76-39" style="edgeStyle=orthogonalEdgeStyle;rounded=0;orthogonalLoop=1;jettySize=auto;html=1;entryX=1;entryY=0.5;entryDx=0;entryDy=0;" parent="axNNHHY9TAka3IsmRY76-31" source="axNNHHY9TAka3IsmRY76-37" target="axNNHHY9TAka3IsmRY76-5" edge="1">
          <mxGeometry relative="1" as="geometry" />
        </mxCell>
        <mxCell id="axNNHHY9TAka3IsmRY76-2" value="CacheServer" style="rounded=0;whiteSpace=wrap;html=1;" parent="1" vertex="1">
          <mxGeometry x="560" y="650" width="120" height="40" as="geometry" />
        </mxCell>
        <mxCell id="axNNHHY9TAka3IsmRY76-4" value="WorldServer" style="rounded=0;whiteSpace=wrap;html=1;" parent="1" vertex="1">
          <mxGeometry x="240" y="650" width="120" height="40" as="geometry" />
        </mxCell>
        <mxCell id="axNNHHY9TAka3IsmRY76-21" value="" style="endArrow=classic;html=1;rounded=0;exitX=0;exitY=0.5;exitDx=0;exitDy=0;entryX=1;entryY=0.5;entryDx=0;entryDy=0;" parent="1" source="axNNHHY9TAka3IsmRY76-2" target="axNNHHY9TAka3IsmRY76-4" edge="1">
          <mxGeometry width="50" height="50" relative="1" as="geometry">
            <mxPoint x="380" y="340" as="sourcePoint" />
            <mxPoint x="430" y="290" as="targetPoint" />
          </mxGeometry>
        </mxCell>
        <mxCell id="axNNHHY9TAka3IsmRY76-40" style="edgeStyle=orthogonalEdgeStyle;rounded=0;orthogonalLoop=1;jettySize=auto;html=1;entryX=1;entryY=0.5;entryDx=0;entryDy=0;" parent="1" source="axNNHHY9TAka3IsmRY76-38" target="axNNHHY9TAka3IsmRY76-2" edge="1">
          <mxGeometry relative="1" as="geometry" />
        </mxCell>
        <mxCell id="axNNHHY9TAka3IsmRY76-17" value="" style="endArrow=classic;html=1;rounded=0;exitX=0.5;exitY=0;exitDx=0;exitDy=0;entryX=0.5;entryY=1;entryDx=0;entryDy=0;" parent="1" source="axNNHHY9TAka3IsmRY76-4" target="axNNHHY9TAka3IsmRY76-8" edge="1">
          <mxGeometry width="50" height="50" relative="1" as="geometry">
            <mxPoint x="380" y="390" as="sourcePoint" />
            <mxPoint x="300" y="490" as="targetPoint" />
          </mxGeometry>
        </mxCell>
        <mxCell id="axNNHHY9TAka3IsmRY76-22" value="" style="endArrow=classic;html=1;rounded=0;exitX=0;exitY=0;exitDx=0;exitDy=0;entryX=1;entryY=1;entryDx=0;entryDy=0;" parent="1" source="axNNHHY9TAka3IsmRY76-2" edge="1">
          <mxGeometry width="50" height="50" relative="1" as="geometry">
            <mxPoint x="380" y="390" as="sourcePoint" />
            <mxPoint x="520" y="580" as="targetPoint" />
          </mxGeometry>
        </mxCell>
        <mxCell id="axNNHHY9TAka3IsmRY76-26" value="" style="endArrow=classic;html=1;rounded=0;exitX=1;exitY=0;exitDx=0;exitDy=0;entryX=0;entryY=1;entryDx=0;entryDy=0;" parent="1" source="axNNHHY9TAka3IsmRY76-4" edge="1">
          <mxGeometry width="50" height="50" relative="1" as="geometry">
            <mxPoint x="530" y="390" as="sourcePoint" />
            <mxPoint x="400" y="580" as="targetPoint" />
          </mxGeometry>
        </mxCell>
        <mxCell id="axNNHHY9TAka3IsmRY76-44" value="" style="endArrow=classic;html=1;rounded=0;exitX=0;exitY=0;exitDx=0;exitDy=0;entryX=1;entryY=1;entryDx=0;entryDy=0;" parent="1" source="axNNHHY9TAka3IsmRY76-38" edge="1">
          <mxGeometry width="50" height="50" relative="1" as="geometry">
            <mxPoint x="860" y="660" as="sourcePoint" />
            <mxPoint x="670" y="480" as="targetPoint" />
          </mxGeometry>
        </mxCell>
        <mxCell id="hUWJUKy3kiVAu-FcMmEy-2" value="" style="endArrow=none;html=1;rounded=0;exitX=1;exitY=1;exitDx=0;exitDy=0;exitPerimeter=0;" edge="1" parent="1" source="axNNHHY9TAka3IsmRY76-50">
          <mxGeometry width="50" height="50" relative="1" as="geometry">
            <mxPoint x="-30" y="460" as="sourcePoint" />
            <mxPoint x="20" y="410" as="targetPoint" />
          </mxGeometry>
        </mxCell>
      </root>
    </mxGraphModel>
  </diagram>
</mxfile>
